<?xml version="1.0" encoding="utf-8"?>
<!-- Svg Vector Icons : http://www.onlinewebfonts.com/icon -->
<!DOCTYPE svg PUBLIC "-//W3C//DTD SVG 1.1//EN" "http://www.w3.org/Graphics/SVG/1.1/DTD/svg11.dtd">
<svg version="1.1" xmlns="http://www.w3.org/2000/svg" xmlns:xlink="http://www.w3.org/1999/xlink" x="0px" y="0px" viewBox="0 0 1000 1000" enable-background="new 0 0 1000 1000" xml:space="preserve">
<metadata> Svg Vector Icons : http://www.onlinewebfonts.com/icon </metadata>
<g><g><g><path fill="#25D366" d="M964,455.8L562.9,54.6c-16.7-16.6-39.3-26-62.8-26c-23.6,0-46.2,9.4-62.8,26L36,455.8c-25.4,25.4-33,63.3-19.3,96.4c13.8,33.2,46.2,54.5,82.1,54.5h51.2v286.9c0,42.9,34.3,77.6,77.2,77.6h68.3V712c0-19.8,16.3-35.2,36.1-35.2h132.7c19.7,0,35.7,15.5,35.7,35.2v259.4h272.8c42.9,0,77-34.7,77-77.6V606.8h51.4c35.9,0,68.3-21.3,82.1-54.5C997,519.1,989.4,481.2,964,455.8z"/></g></g><g></g><g></g><g></g><g></g><g></g><g></g><g></g><g></g><g></g><g></g><g></g><g></g><g></g><g></g><g></g></g>
</svg>